<svg xmlns="http://www.w3.org/2000/svg" viewBox="0 0 45.99 50.17"><defs><style>.cls-1{fill:#ff416a;}</style></defs><title>discord</title><g id="Layer_2" data-name="Layer 2"><g id="Layer_1-2" data-name="Layer 1"><path class="cls-1" d="M5.39,44.31H35.2L33.78,39.7,46,50.17v-45A5.55,5.55,0,0,0,40.45,0H5.4A5.33,5.33,0,0,0,0,5.18v34a5.24,5.24,0,0,0,5.39,5.18ZM27.44,11.88l-.07,0,0,0ZM11.49,14.53a12.84,12.84,0,0,1,7.38-2.65l.29.28a15.2,15.2,0,0,0-6.81,3.21,23.73,23.73,0,0,1,21.15.14A17.14,17.14,0,0,0,27,12.3l.39-.39a13,13,0,0,1,7.27,2.64,32.2,32.2,0,0,1,3.86,14.67,11.1,11.1,0,0,1-8.22,3.61s-1-1.12-1.69-2.09a8.44,8.44,0,0,0,4.68-2.93c-6.63,4.17-12.44,3.52-19.4.7a.16.16,0,0,1-.12-.06v0a.2.2,0,0,0-.13-.06h-.13a6.61,6.61,0,0,0-.71-.42,8.38,8.38,0,0,0,4.55,2.94c-.86,1-1.71,2.09-1.71,2.09-5.83-.14-7.95-3.77-7.95-3.77a32.35,32.35,0,0,1,3.83-14.68Z"/><path class="cls-1" d="M27.82,26.7a2.8,2.8,0,0,0,0-5.6h0a2.8,2.8,0,0,0,0,5.59Z"/><path class="cls-1" d="M18.16,26.7a2.8,2.8,0,0,0,0-5.6h0a2.8,2.8,0,0,0,0,5.59Z"/></g></g></svg>