<svg xmlns="http://www.w3.org/2000/svg" viewBox="0 0 480 480"><defs><style>.cls-1{fill:#475992;}.cls-2{fill:#fefefe;}</style></defs><title>fbNew</title><g id="Layer_2" data-name="Layer 2"><g id="Layer_1-2" data-name="Layer 1"><path class="cls-1" d="M237,480H57.13c-2.18-1.06-4.57-.51-6.84-.8C26.13,476.08,11.81,461,2.61,439.92c-2.31-5.3-1.55-11.38-2.61-17V57.72c1-2.2.71-4.63.78-6.88C1.44,29.76,22.8,8,43.32,2,49.2.3,55.52.16,61.69.16,180.47.13,299.25.34,418,0c30-.08,50,19.14,58.68,39.76,2.94,7,3.19,14.5,3.19,21.85q.18,178.59.1,357.17c0,27.78-14.14,46.11-38.3,57.8-5.06,2.45-10.69,2.3-16.13,2.94-1.07.13-2.2-.23-3.18.48H311.88c-2.86-2.35-2.25-5.66-2.26-8.7-.07-31.67.2-63.35-.12-95-.21-20.6,1.35-41.15,1.11-61.74-.08-7.08,1-8,8.27-8.11,15.77-.18,31.53,0,47.29-.08,9.95-.05,12.57-2,13.94-11.81,2.27-16.21,4.13-32.48,5.74-48.77.68-6.91-2.91-10.54-10.42-10.61-17.95-.16-35.9,0-53.84-.07-11.7,0-12-.3-12-12.18,0-11.7,0-23.4,0-35.1a70.78,70.78,0,0,1,1.56-15.33c3.17-14.41,14.09-22.85,29.9-23.34,9.2-.28,18.42,0,27.62-.09a28.62,28.62,0,0,0,7.44-.68c4.66-1.28,7.14-3.76,7.27-8.56.4-15,.37-29.95,0-44.93-.12-5.25-2.76-7.84-8.14-8.59-13.35-1.87-26.8-1.31-40.17-.56-9,.5-18,.34-27,2.19-39.22,8.09-61.85,34.6-67,73.21-2.71,20.47-1.81,41.1-1.88,61.67,0,12.26,0,12.26-12.16,12.3-10.14,0-20.29-.07-30.43,0-8.63.09-11.63,3-11.69,11.54q-.17,23.4,0,46.81c.07,9.44,3.34,12.72,12.69,12.84,10.61.14,21.22,0,31.83.06,10.17.06,10.65.5,10.67,10.51.07,26.53,0,53.05,0,79.58,0,16.54-.19,33.08.07,49.61.15,9.54-1.1,19-1.1,28.5C239.14,476.66,238.73,478.62,237,480Z"/><path class="cls-2" d="M237,480c.14-1.7.4-3.39.41-5.09.14-53.67.21-107.35.49-161,0-4.35-1.17-5.43-5.4-5.33-12.32.28-24.66.13-37,.09-8.86,0-12.78-4-12.82-12.92q-.1-25.28-.12-50.55c0-8.72,3.78-12.56,12.54-12.62,12.64-.09,25.29-.15,37.92.05,3.57.06,4.45-1.1,4.46-4.53,0-19.65-.79-39.34.46-59,1.62-25.31,9.8-47.87,29.68-64.87C283,91.06,301.34,85.17,321.26,84c17.46-1.08,34.95-.44,52.43-.43,8.69,0,12.49,3.89,12.55,12.63q.13,21.06,0,42.12c-.06,8.89-4,12.7-12.93,12.83-10.76.15-21.55-.15-32.29.45-9.93.55-19.08,3.44-24.53,12.89a28.12,28.12,0,0,0-3.62,11.5c-1.72,17.91-.44,35.86-.86,53.79-.08,3.33,2.16,2.79,4.12,2.79q29,0,58.06,0c11.64,0,15.27,4.29,13.83,15.86-2,16.4-3.87,32.82-5.84,49.22-.91,7.6-4.71,11-12.4,11-17.17.05-34.34.19-51.5-.09-4.58-.08-6,.89-6,5.76.07,53.36-.14,106.72-.28,160.08,0,1.87-.1,3.74-.15,5.61Z"/></g></g></svg>