<svg xmlns="http://www.w3.org/2000/svg" viewBox="0 0 26.15 50.17"><defs><style>.cls-1{fill:#ff416a;}</style></defs><title>fb</title><g id="Layer_2" data-name="Layer 2"><g id="Layer_1-2" data-name="Layer 1"><path class="cls-1" d="M7,50.17c0-1.38,0-2.76,0-4.14q0-8.28,0-16.56c0-1.12,0-.91-.94-.91H1.66A1.4,1.4,0,0,1,.05,27q0-3.07,0-6.16a3.11,3.11,0,0,1,.13-1.1,1.51,1.51,0,0,1,1.63-.91c1.5,0,3,0,4.49,0,.56,0,.69-.18.69-.71,0-2.52-.06-5,.11-7.56C7.43,5.05,10.77.88,16.49.22A74.4,74.4,0,0,1,24.4,0a1.4,1.4,0,0,1,1.49,1.56c0,1.84,0,3.67,0,5.5,0,1.07-.6,1.58-1.7,1.61-1.48,0-3,0-4.43.11-2.14.21-3.15,1.38-3.2,3.52,0,2,0,3.94,0,5.91,0,.47.16.61.62.6,2.44,0,4.89,0,7.33,0,1.19,0,1.8.63,1.68,1.77-.24,2.2-.51,4.41-.81,6.61a1.36,1.36,0,0,1-1.59,1.36H17.18l-.56,0a2.57,2.57,0,0,0-.06.35l0,21.24Z"/></g></g></svg>