<svg xmlns="http://www.w3.org/2000/svg" viewBox="0 0 51.63 50.17"><defs><style>.cls-1{fill:#ff416a;}</style></defs><title>github</title><g id="Layer_2" data-name="Layer 2"><g id="Layer_1-2" data-name="Layer 1"><path class="cls-1" d="M34,50.12c14.26-4.78,22.27-21.65,14.73-36.24C39.66-3.68,14.82-4.82,4.13,11.83-5.24,26.42,2.19,45.33,17.7,50.12c1.29.23,1.76-.56,1.76-1.24s0-2.65,0-4.8c-7.16,1.56-8.68-3-8.68-3-1.17-3-2.86-3.77-2.86-3.77-2.34-1.6.18-1.56.18-1.56A5.43,5.43,0,0,1,12,38.36c2.3,3.94,6,2.8,7.5,2.14a5.5,5.5,0,0,1,1.63-3.44C15.42,36.41,9.41,34.2,9.41,24.32a9.94,9.94,0,0,1,2.65-6.91,9.33,9.33,0,0,1,.25-6.83s2.16-.69,7.09,2.65a24.34,24.34,0,0,1,12.9,0c4.91-3.34,7.08-2.64,7.08-2.64a9.27,9.27,0,0,1,.26,6.82,9.94,9.94,0,0,1,2.65,6.91c0,9.9-6,12.08-11.77,12.72a6.14,6.14,0,0,1,1.75,4.77c0,3.45,0,6.22,0,7.07C32.23,49.57,32.7,50.37,34,50.12Z"/></g></g></svg>