<svg xmlns="http://www.w3.org/2000/svg" viewBox="0 0 67.46 50.17"><defs><style>.cls-1{fill:#ff416a;fill-rule:evenodd;}</style></defs><title>mail</title><g id="Layer_2" data-name="Layer 2"><g id="Layer_1-2" data-name="Layer 1"><path class="cls-1" d="M2.59,50.17H64.87A2.42,2.42,0,0,0,67.46,48V2.19a1.73,1.73,0,0,0-.07-.31,1.85,1.85,0,0,0-.11-.45A1.86,1.86,0,0,0,67,1a1.16,1.16,0,0,0-.18-.27l-.06,0a3.12,3.12,0,0,0-.45-.29,2.32,2.32,0,0,0-.37-.21,2.16,2.16,0,0,0-.44-.1A3.33,3.33,0,0,0,65,0H2.51A3.33,3.33,0,0,0,2,.11a1.93,1.93,0,0,0-.43.1,1.68,1.68,0,0,0-.37.21A2.31,2.31,0,0,0,.71.71L.64.75A2.53,2.53,0,0,0,.46,1a2.29,2.29,0,0,0-.28.41,2.46,2.46,0,0,0-.11.45c0,.11-.07.2-.07.31V48A2.42,2.42,0,0,0,2.59,50.17Zm2.6-4.39V7L32,26.74a2.95,2.95,0,0,0,3.4,0L62.27,7V45.78ZM9.53,4.39h48.4L33.73,22.18Z"/></g></g></svg>