<svg xmlns="http://www.w3.org/2000/svg" viewBox="0 0 50.17 50.17"><defs><style>.cls-1{fill:#ff416a;}</style></defs><title>reddit</title><g id="Layer_2" data-name="Layer 2"><g id="Layer_1-2" data-name="Layer 1"><path class="cls-1" d="M25.67,50.17h-.88c-.21,0-.41-.09-.62-.11-1.34-.15-2.7-.18-4-.46a24.56,24.56,0,0,1-15.39-10A24,24,0,0,1,.11,26,4.23,4.23,0,0,0,0,25.38v-.59c0-.21.09-.41.11-.62.15-1.34.18-2.7.45-4a24.62,24.62,0,0,1,10-15.38A24,24,0,0,1,24.17.11,4.48,4.48,0,0,0,24.79,0h.88l.62.1c1.28.15,2.58.21,3.83.47A24.62,24.62,0,0,1,44.19,8.92,24.44,24.44,0,0,1,50,22.32c.08.72.15,1.45.22,2.18v1.17c0,.21-.07.41-.1.62-.15,1.26-.2,2.54-.46,3.78a24.65,24.65,0,0,1-8.93,14.58A24.37,24.37,0,0,1,27.76,50ZM25,42.38a19.07,19.07,0,0,0,7.13-1.32,13.65,13.65,0,0,0,7-5.65A8.85,8.85,0,0,0,40.5,30a.63.63,0,0,1,.32-.64,4.43,4.43,0,0,0-4.73-7.49.48.48,0,0,1-.61,0,17.3,17.3,0,0,0-8.44-3c-.3,0-.41-.15-.35-.44.25-1.39.51-2.78.75-4.18,0-.28.17-.34.42-.34.8,0,1.6,0,2.4,0,.6,0,1.17,0,1.5.61a1.38,1.38,0,0,0,.34.28,2.93,2.93,0,0,0,4.1-.59,3,3,0,0,0-.54-4.15,2.92,2.92,0,0,0-4.08.46,1,1,0,0,1-.87.4c-1.74,0-3.49,0-5.24,0-.33,0-.47.08-.54.44-.39,2.15-.82,4.29-1.24,6.42-.19,1-.19,1-1.12,1.11a18,18,0,0,0-7.91,2.92.66.66,0,0,1-.55,0,4.67,4.67,0,0,0-2.28-.62,4.47,4.47,0,0,0-2.52,8.19.8.8,0,0,1,.31.52c.05.66,0,1.34.07,2a10.31,10.31,0,0,0,3.53,6.27A17.47,17.47,0,0,0,25,42.38Z"/><path class="cls-1" d="M20.57,34.08c.49.18.94.36,1.41.5a10.42,10.42,0,0,0,7.07-.35c.35-.14.51-.09.67.26.31.69.67,1.37,1,2-2.69,1.67-8,1.81-11.4,0Z"/><path class="cls-1" d="M28,28.58a2.88,2.88,0,1,1,2.87,2.91A2.88,2.88,0,0,1,28,28.58Z"/><path class="cls-1" d="M19.12,31.44a2.79,2.79,0,0,1-2.82-2.87,2.87,2.87,0,0,1,2.87-2.85A2.9,2.9,0,0,1,22,28.62,2.85,2.85,0,0,1,19.12,31.44Z"/></g></g></svg>