<svg xmlns="http://www.w3.org/2000/svg" viewBox="0 0 59.73 50.17"><defs><style>.cls-1{fill:#ff416a;}</style></defs><title>twitter</title><g id="Layer_2" data-name="Layer 2"><g id="Layer_1-2" data-name="Layer 1"><path class="cls-1" d="M0,44.54v-.7A1.08,1.08,0,0,1,1.25,43a26.44,26.44,0,0,0,7.26-.8A23.71,23.71,0,0,0,15,39.38c-.73-.28-1.42-.43-2.06-.71a13,13,0,0,1-7.29-7.36c-.21-.51-.5-1.07-.07-1.6s1.06-.33,1.63-.29l.51.08a12.68,12.68,0,0,1-4.08-3.58A13.24,13.24,0,0,1,1,19a4.82,4.82,0,0,1,0-.93,1,1,0,0,1,1.49-.91,10.62,10.62,0,0,0,1.81.75A12.83,12.83,0,0,1,1.15,8.66,12.68,12.68,0,0,1,2.82,2.9a.93.93,0,0,1,1.62-.25A22.37,22.37,0,0,1,6.06,4.4,31.87,31.87,0,0,0,11.6,9.17,33.23,33.23,0,0,0,21,13.63a34.22,34.22,0,0,0,5.52,1.14,3.55,3.55,0,0,0,.46,0c.52,0,.63-.09.59-.61a14.42,14.42,0,0,1,.57-5.06,12.61,12.61,0,0,1,3.75-5.84A12.56,12.56,0,0,1,38.4.21,12.68,12.68,0,0,1,48.75,2.79a2.68,2.68,0,0,0,2.78.56,26.28,26.28,0,0,0,4.9-2.12A3,3,0,0,1,56.91,1a1,1,0,0,1,1,.19,1,1,0,0,1,.24,1.07A12.44,12.44,0,0,1,56.5,5.58a6.31,6.31,0,0,1-1,1.3,20.72,20.72,0,0,0,3-1,1,1,0,0,1,1,.07A1,1,0,0,1,59.67,7a5.89,5.89,0,0,1-1.42,2.16,25,25,0,0,1-3.36,3.39,2.83,2.83,0,0,0-1,2.29A36,36,0,0,1,50.64,29.3a35.85,35.85,0,0,1-4.76,7.84A34.73,34.73,0,0,1,38.68,44a33.65,33.65,0,0,1-8.76,4.4A35.06,35.06,0,0,1,22.19,50a37.06,37.06,0,0,1-4.47.21A37,37,0,0,1,7.87,48.6,38.71,38.71,0,0,1,1,45.68,1.66,1.66,0,0,1,0,44.54Z"/></g></g></svg>