<svg xmlns="http://www.w3.org/2000/svg" viewBox="0 0 51.39 42.16"><defs><style>.cls-1{fill:#ff4169;fill-rule:evenodd;}</style></defs><title>arrowRight-door</title><g id="Layer_2" data-name="Layer 2"><g id="Layer_1-2" data-name="Layer 1"><path class="cls-1" d="M0,20.84a2,2,0,0,0,2,2H30.63L21.85,31.6a2,2,0,1,0,2.79,2.79L36.53,22.5a2,2,0,0,0,.58-1.4,1.94,1.94,0,0,0-.58-1.39L24.12,7.29a2,2,0,1,0-2.8,2.79l8.78,8.78H2A2,2,0,0,0,0,20.84Z"/><path class="cls-1" d="M35.3,40.18a2,2,0,0,0,2,2H49.42a2,2,0,0,0,2-2V2a2,2,0,0,0-2-2H37.27a2,2,0,0,0,0,4H47.44V38.2H37.27A2,2,0,0,0,35.3,40.18Z"/></g></g></svg>