<svg xmlns="http://www.w3.org/2000/svg" viewBox="0 0 55 113.6"><defs><style>.cls-1{fill:#ff416a;}.cls-2{fill:none;stroke:#ff416a;stroke-miterlimit:10;}</style></defs><title>arrow</title><g id="Layer_2" data-name="Layer 2"><g id="Layer_1-2" data-name="Layer 1"><path class="cls-1" d="M42.67,77.48a.75.75,0,0,0-1.07,0L28.23,90.84V72.06L34.9,65.4a.76.76,0,0,0,.22-.54.81.81,0,0,0-.22-.54L20.8,50.23l14.1-14.1a1.14,1.14,0,0,0,.15-.23v0a.8.8,0,0,0,0-.15.7.7,0,0,0,0-.14h0a.76.76,0,0,0-.22-.54L20.27,20.42a.77.77,0,0,0-1.07,0,.75.75,0,0,0,0,1.07l14.09,14.1-14.1,14.1a.57.57,0,0,0-.13.21s0,0,0,0a.58.58,0,0,0,0,.14.89.89,0,0,0,0,.14h0a.79.79,0,0,0,.22.53l14.1,14.1L27,71.17a.69.69,0,0,0-.2.28.68.68,0,0,0-.06.42V90.79L13.4,77.48a.75.75,0,0,0-1.07,0,.77.77,0,0,0,0,1.07L27,93.18a.77.77,0,0,0,1.08,0L42.67,78.55A.77.77,0,0,0,42.67,77.48Z"/><rect class="cls-2" x="0.5" y="0.5" width="54" height="112.6" rx="27"/></g></g></svg>