<svg xmlns="http://www.w3.org/2000/svg" viewBox="0 0 1920.15 4052.25"><defs><style>.cls-1,.cls-10,.cls-12{fill:#222;}.cls-2,.cls-9{fill:#42262c;}.cls-24,.cls-25,.cls-3,.cls-4,.cls-5,.cls-6,.cls-7,.cls-8{fill:none;}.cls-3,.cls-4,.cls-5,.cls-6,.cls-7,.cls-8{stroke:#42262c;}.cls-10,.cls-12,.cls-24,.cls-25,.cls-3,.cls-5,.cls-6,.cls-7,.cls-8{stroke-miterlimit:10;}.cls-3{stroke-width:1.93px;}.cls-4{stroke-linecap:round;stroke-linejoin:round;stroke-width:1.93px;}.cls-5,.cls-6{stroke-width:0.97px;}.cls-25,.cls-6,.cls-9{fill-rule:evenodd;}.cls-7,.cls-8{stroke-width:2px;}.cls-8{stroke-dasharray:21.87 21.87;}.cls-10,.cls-12{stroke:#ff4262;}.cls-10{stroke-width:0.51px;}.cls-11{opacity:0.65;}.cls-12{stroke-width:0.87px;}.cls-13{opacity:0.25;}.cls-14{fill:#292d3e;}.cls-15{fill:#c3ce62;}.cls-16{fill:#e44e47;}.cls-17{fill:#4d4d4d;}.cls-18{fill:#e23c2b;}.cls-19{fill:#f36f0b;}.cls-20{fill:#487a16;}.cls-21{fill:#3e9fc8;}.cls-22{fill:#9a7e70;}.cls-23{fill:#c790d4;}.cls-24,.cls-25{stroke:#e44e47;stroke-width:0.5px;}</style></defs><title>background_1</title><g id="Layer_2" data-name="Layer 2"><g id="Layer_1-2" data-name="Layer 1"><rect class="cls-1" x="0.15" width="1920" height="4052.25"/><circle class="cls-2" cx="1798.44" cy="192.12" r="14.79"/><circle class="cls-2" cx="1771.37" cy="239.19" r="9.86"/><circle class="cls-2" cx="1749.16" cy="276.4" r="4.93"/><line class="cls-3" x1="1265.46" y1="693.05" x2="1807.23" y2="693.05"/><circle class="cls-2" cx="1220" cy="693.05" r="12.58"/><line class="cls-3" x1="1071.76" y1="495.35" x2="1741.23" y2="495.35"/><circle class="cls-2" cx="1048.54" cy="495.35" r="12.58"/><path class="cls-4" d="M1330.51,338.1c.21.35.77-.91,1-.56,13.16,22.79,43.63-17.08,54.21,1.24.62,1.08,1.74-2,2.15-1.24,6.14,10.63,23.91-9.06,29.85,1.24.54.93,1.69-2.06,2.16-1.25s1.08.44,1.55,1.25,1.56-2.27,2.15-1.25c9.77,16.92,30.45-13.64,39,1.24.54.94,1.7-2,2.15-1.24,11.86,20.54,43.17-23.2,57.27,1.24.5.86,1.63-2.16,2.16-1.25,4.28,7.42,15.09-7,19.83,1.25.57,1,1.54-2.33,2.16-1.25,2.46,4.27,8.28-2.52,10.45,1.24.4.7,1.53-2.32,2.15-1.24,1,1.7,3.5-.61,4.57,1.24.47.82,1.71-2,2.15-1.24,12,20.86,45-14.72,54.27,1.24.27.48.67-1,1-.55"/><circle class="cls-2" cx="1023.81" cy="349.76" r="12.58"/><path class="cls-3" d="M1054.76,349.76h228.32a10.71,10.71,0,0,1,6.6,2.74l63.22,63.21a10.74,10.74,0,0,0,6.61,2.74h345.37"/><path class="cls-5" d="M1555.37,235.15a1.05,1.05,0,0,0-2,0l-14.05,24.32c-.54.95-.1,1.72,1,1.72h28.09c1.09,0,1.54-.77,1-1.72Z"/><circle class="cls-5" cx="1554.37" cy="256.59" r="1.54"/><path class="cls-6" d="M1556.61,244a2,2,0,0,0,.06-.49,2.3,2.3,0,1,0-4.59,0,2.63,2.63,0,0,0,.05.49l.86,7.65h0a1.39,1.39,0,1,0,2.77,0h0Z"/><polyline class="cls-3" points="1468.56 433.22 1453.79 418.45 1468.56 403.67"/><path class="cls-3" d="M1163.24,349.76H1165c.93,0,2.93-1.23,4.44-2.74l97.24-97.24a10.8,10.8,0,0,1,6.61-2.74h255.57"/><line class="cls-3" x1="1512.36" y1="284.46" x2="1512.36" y2="305.74"/><line class="cls-3" x1="1501.72" y1="295.1" x2="1523" y2="295.1"/><line class="cls-7" x1="1353.23" y1="604.33" x2="1365.23" y2="604.33"/><polyline class="cls-8" points="1387.1 604.33 1485.23 604.33 1537.23 552.33 1573.3 552.33"/><line class="cls-7" x1="1584.23" y1="552.33" x2="1596.23" y2="552.33"/><path class="cls-9" d="M1667.22,599a5.73,5.73,0,0,0-1.54.22c-.5-5.61-4.93-10-10.31-10a10.47,10.47,0,0,0-9.61,6.94,6.13,6.13,0,0,0-1.26-.13,7.91,7.91,0,0,0,0,15.79h22.72a6.41,6.41,0,0,0,0-12.8Zm0,10.76H1644.5a5.88,5.88,0,0,1,0-11.71,5,5,0,0,1,1.6.3,1,1,0,0,0,.8-.06,1,1,0,0,0,.51-.63,8.5,8.5,0,0,1,8-6.42c4.58,0,8.31,4.06,8.31,9a2.44,2.44,0,0,1,0,.27v.19a1,1,0,0,0,.51.93,1,1,0,0,0,1.06,0,3.6,3.6,0,0,1,2-.61,4.37,4.37,0,0,1,0,8.71Z"/><path class="cls-9" d="M1618.25,540.06h-3a4.12,4.12,0,0,0-4.08,4.28v4.29h-.36a2.19,2.19,0,0,0-2.5,2.36v10.8a2.32,2.32,0,0,0,2.5,2.54h11.42c1.57,0,3.21-1,3.21-2.54V551c0-1.45-1.4-2.24-2.85-2.35v-4.3A4.3,4.3,0,0,0,1618.25,540.06Zm-5.7,4.28a2.68,2.68,0,0,1,2.65-2.85h3a2.86,2.86,0,0,1,2.86,2.85v4.29h-8.56ZM1624,551v10.8c0,.79-1,1.11-1.78,1.11h-11.42c-.78,0-1.07-.32-1.07-1.11V551c0-.78.29-.94,1.07-.94h11.42l.36,0C1623.24,550.11,1624,550.32,1624,551Z"/><path class="cls-9" d="M1616.79,553.35a1.62,1.62,0,0,0-.81,3l-.31,2.68h2.24l-.31-2.68a1.62,1.62,0,0,0-.81-3Z"/><circle class="cls-2" cx="1531.23" cy="556.33" r="4"/><circle class="cls-2" cx="1375.23" cy="604.33" r="4"/><circle class="cls-2" cx="1464.23" cy="604.33" r="4"/><polygon class="cls-10" points="1654.42 2134.67 1589.64 2095.51 1588.46 2004.81 1654.05 2043.79 1654.42 2134.67"/><polygon class="cls-10" points="1719.34 2095.83 1654.42 2134.67 1654.05 2043.79 1719.79 2004.81 1719.34 2095.83"/><polygon class="cls-10" points="1654.05 2043.79 1588.46 2004.81 1655.01 1965.94 1719.79 2004.81 1654.05 2043.79"/><polygon class="cls-10" points="1740.7 2336.68 1675.92 2297.52 1674.74 2206.82 1740.33 2245.8 1740.7 2336.68"/><polygon class="cls-10" points="1805.62 2297.84 1740.7 2336.68 1740.33 2245.8 1806.08 2206.82 1805.62 2297.84"/><polygon class="cls-10" points="1740.33 2245.8 1674.74 2206.82 1741.29 2167.95 1806.08 2206.82 1740.33 2245.8"/><polygon class="cls-10" points="1740.7 2189.45 1675.92 2150.28 1674.74 2059.58 1740.33 2098.56 1740.7 2189.45"/><polygon class="cls-10" points="1805.62 2150.6 1740.7 2189.45 1740.33 2098.56 1806.08 2059.58 1805.62 2150.6"/><polygon class="cls-10" points="1740.33 2098.56 1674.74 2059.58 1741.29 2020.71 1806.08 2059.58 1740.33 2098.56"/><g class="cls-11"><polygon class="cls-12" points="323 1412.75 433 1479.25 435 1633.25 323.64 1567.06 323 1412.75"/><polygon class="cls-12" points="212.77 1478.7 323 1412.75 323.64 1567.06 212 1633.25 212.77 1478.7"/><polygon class="cls-12" points="323.64 1567.06 435 1633.25 322 1699.25 212 1633.25 323.64 1567.06"/><polygon class="cls-12" points="176.5 1069.75 286.5 1136.25 288.5 1290.25 177.14 1224.06 176.5 1069.75"/><polygon class="cls-12" points="66.27 1135.7 176.5 1069.75 177.14 1224.06 65.5 1290.25 66.27 1135.7"/><polygon class="cls-12" points="177.14 1224.06 288.5 1290.25 175.5 1356.25 65.5 1290.25 177.14 1224.06"/><polygon class="cls-12" points="176.5 1319.75 286.5 1386.25 288.5 1540.25 177.14 1474.06 176.5 1319.75"/><polygon class="cls-12" points="66.27 1385.7 176.5 1319.75 177.14 1474.06 65.5 1540.25 66.27 1385.7"/><polygon class="cls-12" points="177.14 1474.06 288.5 1540.25 175.5 1606.25 65.5 1540.25 177.14 1474.06"/></g><rect class="cls-2" x="363.16" y="3589.01" width="4.87" height="85.68" rx="2.43"/><rect class="cls-2" x="395.29" y="3585.6" width="4.87" height="92.49" rx="2.43"/><rect class="cls-2" x="427.42" y="3573.43" width="4.87" height="116.84" rx="2.43"/><rect class="cls-2" x="459.55" y="3563.7" width="4.87" height="136.31" rx="2.43"/><rect class="cls-2" x="491.68" y="3540.33" width="4.87" height="183.04" rx="2.43"/><rect class="cls-2" x="523.81" y="3491.65" width="4.87" height="280.41" rx="2.43"/><rect class="cls-2" x="555.94" y="3500.41" width="4.87" height="262.88" rx="2.43"/><rect class="cls-2" x="588.07" y="3442.97" width="4.87" height="377.77" rx="2.43"/><rect class="cls-2" x="620.2" y="3437.12" width="4.87" height="389.45" rx="2.43"/><rect class="cls-2" x="652.33" y="3427.39" width="4.87" height="408.92" rx="2.18"/><rect class="cls-2" x="684.46" y="3446.86" width="4.87" height="369.98" rx="2.43"/><rect class="cls-2" x="716.59" y="3485.81" width="4.87" height="292.09" rx="2.43"/><rect class="cls-2" x="748.72" y="3524.75" width="4.87" height="214.2" rx="2.43"/><rect class="cls-2" x="780.85" y="3540.33" width="4.87" height="183.04" rx="2.18"/><rect class="cls-2" x="812.98" y="3583.17" width="4.87" height="97.36" rx="2.43"/><rect class="cls-2" x="845.11" y="3607.51" width="4.87" height="48.68" rx="2.43"/><rect class="cls-2" x="877.24" y="3619.68" width="4.87" height="24.34" rx="2.43"/><rect class="cls-2" x="909.37" y="3607.51" width="4.87" height="48.68" rx="2.43"/><rect class="cls-2" x="941.5" y="3589.01" width="4.87" height="85.68" rx="2.43"/><rect class="cls-2" x="973.63" y="3589.01" width="4.87" height="85.68" rx="2.18"/><rect class="cls-2" x="1005.76" y="3515.01" width="4.87" height="233.67" rx="2.43"/><rect class="cls-2" x="1037.89" y="3553.96" width="4.87" height="155.78" rx="2.43"/><rect class="cls-2" x="1070.02" y="3589.01" width="4.87" height="85.68" rx="2.43"/><rect class="cls-2" x="1102.15" y="3589.01" width="4.87" height="85.68" rx="2.18"/><rect class="cls-2" x="1134.28" y="3612.38" width="4.87" height="38.95" rx="2.43"/><rect class="cls-2" x="1166.41" y="3622.11" width="4.87" height="19.47" rx="2.43"/><rect class="cls-2" x="1198.54" y="3612.38" width="4.87" height="38.95" rx="2.43"/><rect class="cls-2" x="1230.67" y="3589.01" width="4.87" height="85.68" rx="2.43"/><rect class="cls-2" x="1262.8" y="3553.96" width="4.87" height="155.78" rx="2.43"/><rect class="cls-2" x="1294.93" y="3515.01" width="4.87" height="233.67" rx="2.43"/><rect class="cls-2" x="1327.06" y="3476.07" width="4.87" height="311.56" rx="2.43"/><rect class="cls-2" x="1359.19" y="3437.12" width="4.87" height="389.45" rx="2.43"/><rect class="cls-2" x="1391.32" y="3456.6" width="4.87" height="350.51" rx="2.18"/><rect class="cls-2" x="1423.45" y="3485.81" width="4.87" height="292.09" rx="2.43"/><rect class="cls-2" x="1455.58" y="3530.59" width="4.87" height="202.52" rx="2.18"/><rect class="cls-2" x="1487.71" y="3540.33" width="4.87" height="183.04" rx="2.43"/><rect class="cls-2" x="1519.84" y="3579.27" width="4.87" height="105.15" rx="2.43"/><rect class="cls-2" x="1551.97" y="3589.01" width="4.87" height="85.68" rx="2.43"/><rect class="cls-2" x="1584.1" y="3598.75" width="4.87" height="66.21" rx="2.43"/><rect class="cls-2" x="1616.23" y="3608.48" width="4.87" height="46.73" rx="2.43"/><rect class="cls-2" x="1648.36" y="3618.22" width="4.87" height="27.26" rx="2.43"/><rect class="cls-2" x="1680.49" y="3623.09" width="4.87" height="17.53" rx="2.43"/><rect class="cls-2" x="1712.62" y="3627.96" width="4.87" height="7.79" rx="2.43"/><rect class="cls-2" x="1744.75" y="3631.36" width="175.25" height="0.97" rx="0.49"/><rect class="cls-2" x="331.03" y="3598.75" width="4.87" height="66.21" rx="2.43" transform="translate(666.94 7263.7) rotate(-180)"/><rect class="cls-2" x="298.9" y="3608.48" width="4.87" height="46.73" rx="2.43" transform="translate(602.68 7263.7) rotate(-180)"/><rect class="cls-2" x="266.77" y="3618.22" width="4.87" height="27.26" rx="2.43" transform="translate(538.42 7263.7) rotate(180)"/><rect class="cls-2" x="234.65" y="3623.09" width="4.87" height="17.53" rx="2.43" transform="translate(474.16 7263.7) rotate(-180)"/><rect class="cls-2" x="202.52" y="3627.96" width="4.87" height="7.79" rx="2.43" transform="translate(409.9 7263.7) rotate(180)"/><rect class="cls-2" y="3631.36" width="175.25" height="0.97" rx="0.49" transform="translate(175.25 7263.7) rotate(-180)"/><g class="cls-13"><rect class="cls-14" x="116.81" y="2333.25" width="760" height="460"/><rect class="cls-15" x="286" y="2378.25" width="469" height="4" rx="2"/><circle class="cls-15" cx="241" cy="2380.25" r="4"/><rect class="cls-16" x="355" y="2408.25" width="400" height="4" rx="1.85"/><circle class="cls-16" cx="241" cy="2410.25" r="4"/><rect class="cls-17" x="117" y="2333.25" width="760" height="22"/><circle class="cls-18" cx="130" cy="2343.25" r="4"/><circle class="cls-19" cx="143" cy="2343.25" r="4"/><circle class="cls-20" cx="156" cy="2343.25" r="4"/><circle class="cls-21" cx="169" cy="2343.25" r="4"/><rect class="cls-22" x="355" y="2438.25" width="400" height="4" rx="1.85"/><circle class="cls-22" cx="241" cy="2440.25" r="4"/><rect class="cls-22" x="385" y="2468.25" width="370" height="4" rx="1.78"/><circle class="cls-22" cx="241" cy="2470.25" r="4"/><rect class="cls-15" x="286" y="2528.25" width="469" height="4" rx="2"/><circle class="cls-15" cx="241" cy="2530.25" r="4"/><rect class="cls-23" x="286" y="2558.25" width="469" height="4" rx="2"/><circle class="cls-23" cx="241" cy="2560.25" r="4"/><rect class="cls-22" x="405" y="2588.25" width="350" height="4" rx="1.73"/><circle class="cls-22" cx="241" cy="2590.25" r="4"/><rect class="cls-16" x="405" y="2618.25" width="350" height="4" rx="1.73"/><circle class="cls-16" cx="241" cy="2620.25" r="4"/><rect class="cls-22" x="405" y="2648.25" width="350" height="4" rx="1.73"/><circle class="cls-22" cx="241" cy="2650.25" r="4"/><rect class="cls-22" x="555" y="2678.25" width="200" height="4" rx="1.31"/><circle class="cls-22" cx="241" cy="2680.25" r="4"/><rect class="cls-23" x="286" y="2738.25" width="469" height="4" rx="2"/><circle class="cls-23" cx="241" cy="2740.25" r="4"/><rect class="cls-15" x="286" y="2768.25" width="469" height="4" rx="2"/><circle class="cls-15" cx="241" cy="2770.25" r="4"/><path class="cls-24" d="M787.59,2405.1a.49.49,0,0,0-.93,0l-6.57,11.38c-.26.45-.05.81.46.81h13.14c.51,0,.72-.36.47-.81Z"/><path class="cls-25" d="M787.84,2415.13a.72.72,0,1,1-.72-.72A.73.73,0,0,1,787.84,2415.13Z"/><path class="cls-25" d="M788.17,2409.25a.85.85,0,0,0,0-.23,1.08,1.08,0,0,0-2.15,0,1.64,1.64,0,0,0,0,.23l.41,3.58h0a.65.65,0,1,0,1.29,0h0Z"/><path class="cls-24" d="M787.59,2614.1a.49.49,0,0,0-.93,0l-6.57,11.38c-.26.45-.05.81.46.81h13.14c.51,0,.72-.36.47-.81Z"/><path class="cls-25" d="M787.84,2624.13a.72.72,0,1,1-.72-.72A.73.73,0,0,1,787.84,2624.13Z"/><path class="cls-25" d="M788.17,2618.25a.85.85,0,0,0,0-.23,1.08,1.08,0,0,0-2.15,0,1.64,1.64,0,0,0,0,.23l.41,3.58h0a.65.65,0,1,0,1.29,0h0Z"/></g></g></g></svg>