<svg xmlns="http://www.w3.org/2000/svg" viewBox="0 0 17.16 13.28"><defs><style>.cls-1{fill:#ff4169;fill-rule:evenodd;}</style></defs><title>hb-icon</title><g id="Layer_2" data-name="Layer 2"><g id="Layer_1-2" data-name="Layer 1"><path class="cls-1" d="M.75,1.5H16.41a.76.76,0,0,0,.75-.75A.76.76,0,0,0,16.41,0H.75A.76.76,0,0,0,0,.75.76.76,0,0,0,.75,1.5Z"/><path class="cls-1" d="M.75,5.68H16.06a.75.75,0,0,0,0-1.5H.75a.75.75,0,0,0,0,1.5Z"/><path class="cls-1" d="M.75,9.34H16.06a.75.75,0,0,0,0-1.5H.75a.75.75,0,0,0,0,1.5Z"/><path class="cls-1" d="M.75,13.28H16.06a.75.75,0,0,0,0-1.5H.75a.75.75,0,0,0,0,1.5Z"/></g></g></svg>