<svg xmlns="http://www.w3.org/2000/svg" viewBox="0 0 293.86 601.52"><defs><style>.cls-1{fill:#222;}.cls-2,.cls-8,.cls-9{fill:none;stroke-miterlimit:10;}.cls-2{stroke:#ff4262;}.cls-3{fill:#292d3e;}.cls-4{fill:#c3ce62;}.cls-5{fill:#e44e47;}.cls-6{fill:#9a7e70;}.cls-7{fill:#c790d4;}.cls-8,.cls-9{stroke:#e44e47;stroke-width:0.18px;}.cls-9{fill-rule:evenodd;}</style></defs><title>mobile</title><g id="Layer_2" data-name="Layer 2"><g id="Layer_1-2" data-name="Layer 1"><rect class="cls-1" width="293.86" height="601.52" rx="43.23"/><circle class="cls-2" cx="178.64" cy="22" r="3.61"/><rect class="cls-2" x="127.75" y="19.61" width="35.54" height="4.77" rx="2.39"/><path class="cls-3" d="M219.48,19h0a4.78,4.78,0,0,1,4.78-4.77h23.45A32.32,32.32,0,0,1,280,46.53V534.71A32.32,32.32,0,0,1,247.71,567H43.15a32.32,32.32,0,0,1-32.32-32.32V46.53A32.32,32.32,0,0,1,43.15,14.21H66.56A4.78,4.78,0,0,1,71.33,19h0A17.24,17.24,0,0,0,88.57,36.22H202.24A17.24,17.24,0,0,0,219.48,19Z"/><path class="cls-3" d="M281.06,41a32.29,32.29,0,0,0-31.85-26.74H225.76A4.77,4.77,0,0,0,221,19a17.21,17.21,0,0,1-17.24,17.17H90.07A17.21,17.21,0,0,1,72.83,19a4.77,4.77,0,0,0-4.77-4.76H44.65A32.3,32.3,0,0,0,12.8,41Z"/><rect class="cls-4" x="64.53" y="99.17" width="168.43" height="1.44" rx="0.72"/><circle class="cls-4" cx="48.37" cy="99.89" r="1.44"/><rect class="cls-5" x="89.31" y="109.95" width="143.65" height="1.44" rx="0.66"/><circle class="cls-5" cx="48.37" cy="110.67" r="1.44"/><rect class="cls-6" x="89.31" y="120.72" width="143.65" height="1.44" rx="0.66"/><circle class="cls-6" cx="48.37" cy="121.44" r="1.44"/><rect class="cls-6" x="100.08" y="131.49" width="132.87" height="1.44" rx="0.64"/><circle class="cls-6" cx="48.37" cy="132.21" r="1.44"/><rect class="cls-4" x="64.53" y="153.04" width="168.43" height="1.44" rx="0.72"/><circle class="cls-4" cx="48.37" cy="153.76" r="1.44"/><rect class="cls-7" x="64.53" y="163.82" width="168.43" height="1.44" rx="0.72"/><circle class="cls-7" cx="48.37" cy="164.53" r="1.44"/><rect class="cls-6" x="107.26" y="174.59" width="125.69" height="1.44" rx="0.62"/><circle class="cls-6" cx="48.37" cy="175.31" r="1.44"/><rect class="cls-5" x="107.26" y="185.36" width="125.69" height="1.44" rx="0.62"/><circle class="cls-5" cx="48.37" cy="186.08" r="1.44"/><rect class="cls-6" x="107.26" y="196.14" width="125.69" height="1.44" rx="0.62"/><circle class="cls-6" cx="48.37" cy="196.85" r="1.44"/><rect class="cls-6" x="161.13" y="206.91" width="71.82" height="1.44" rx="0.47"/><circle class="cls-6" cx="48.37" cy="207.63" r="1.44"/><rect class="cls-7" x="64.53" y="228.46" width="168.43" height="1.44" rx="0.72"/><circle class="cls-7" cx="48.37" cy="229.17" r="1.44"/><rect class="cls-4" x="64.53" y="239.23" width="168.43" height="1.44" rx="0.72"/><circle class="cls-4" cx="48.37" cy="239.95" r="1.44"/><path class="cls-8" d="M244.41,108.82c-.1-.16-.25-.16-.34,0l-2.36,4.08a.18.18,0,0,0,.17.29h4.72c.18,0,.26-.13.16-.29Z"/><path class="cls-9" d="M244.5,112.42a.26.26,0,1,1-.26-.26A.26.26,0,0,1,244.5,112.42Z"/><path class="cls-9" d="M244.62,110.31v-.08a.38.38,0,0,0-.38-.39.39.39,0,0,0-.39.39s0,0,0,.08l.15,1.28h0a.23.23,0,1,0,.46,0h0Z"/><path class="cls-8" d="M244.41,183.87c-.1-.16-.25-.16-.34,0L241.71,188a.18.18,0,0,0,.17.29h4.72c.18,0,.26-.13.16-.29Z"/><path class="cls-9" d="M244.5,187.48a.26.26,0,1,1-.26-.26A.26.26,0,0,1,244.5,187.48Z"/><path class="cls-9" d="M244.62,185.36v-.08a.38.38,0,0,0-.38-.38.39.39,0,0,0-.39.38s0,.06,0,.08l.15,1.29h0a.23.23,0,1,0,.46,0h0Z"/><rect class="cls-4" x="64.53" y="255.17" width="168.43" height="1.44" rx="0.72"/><circle class="cls-4" cx="48.37" cy="255.89" r="1.44"/><rect class="cls-5" x="89.31" y="265.95" width="143.65" height="1.44" rx="0.66"/><circle class="cls-5" cx="48.37" cy="266.67" r="1.44"/><rect class="cls-6" x="89.31" y="276.72" width="143.65" height="1.44" rx="0.66"/><circle class="cls-6" cx="48.37" cy="277.44" r="1.44"/><rect class="cls-6" x="100.08" y="287.49" width="132.87" height="1.44" rx="0.64"/><circle class="cls-6" cx="48.37" cy="288.21" r="1.44"/><rect class="cls-4" x="64.53" y="309.04" width="168.43" height="1.44" rx="0.72"/><circle class="cls-4" cx="48.37" cy="309.76" r="1.44"/><rect class="cls-7" x="64.53" y="319.82" width="168.43" height="1.44" rx="0.72"/><circle class="cls-7" cx="48.37" cy="320.53" r="1.44"/><rect class="cls-6" x="107.26" y="330.59" width="125.69" height="1.44" rx="0.62"/><circle class="cls-6" cx="48.37" cy="331.31" r="1.44"/><rect class="cls-5" x="107.26" y="341.36" width="125.69" height="1.44" rx="0.62"/><circle class="cls-5" cx="48.37" cy="342.08" r="1.44"/><rect class="cls-6" x="107.26" y="352.14" width="125.69" height="1.44" rx="0.62"/><circle class="cls-6" cx="48.37" cy="352.85" r="1.44"/><rect class="cls-6" x="161.13" y="362.91" width="71.82" height="1.44" rx="0.47"/><circle class="cls-6" cx="48.37" cy="363.63" r="1.44"/><rect class="cls-7" x="64.53" y="384.46" width="168.43" height="1.44" rx="0.72"/><circle class="cls-7" cx="48.37" cy="385.17" r="1.44"/><rect class="cls-4" x="64.53" y="395.23" width="168.43" height="1.44" rx="0.72"/><circle class="cls-4" cx="48.37" cy="395.95" r="1.44"/><path class="cls-8" d="M244.41,264.82c-.1-.16-.25-.16-.34,0l-2.36,4.08a.18.18,0,0,0,.17.29h4.72c.18,0,.26-.13.16-.29Z"/><path class="cls-9" d="M244.5,268.42a.26.26,0,1,1-.26-.26A.26.26,0,0,1,244.5,268.42Z"/><path class="cls-9" d="M244.62,266.31v-.08a.38.38,0,0,0-.38-.39.39.39,0,0,0-.39.39s0,0,0,.08l.15,1.28h0a.23.23,0,1,0,.46,0h0Z"/><path class="cls-8" d="M244.41,339.87c-.1-.16-.25-.16-.34,0L241.71,344a.18.18,0,0,0,.17.29h4.72c.18,0,.26-.13.16-.29Z"/><path class="cls-9" d="M244.5,343.48a.26.26,0,1,1-.26-.26A.26.26,0,0,1,244.5,343.48Z"/><path class="cls-9" d="M244.62,341.36v-.08a.38.38,0,0,0-.38-.38.39.39,0,0,0-.39.38s0,.06,0,.08l.15,1.29h0a.23.23,0,0,0,.46,0h0Z"/><rect class="cls-7" x="64.53" y="418.46" width="168.43" height="1.44" rx="0.72"/><circle class="cls-7" cx="48.37" cy="419.17" r="1.44"/><rect class="cls-4" x="64.53" y="429.23" width="168.43" height="1.44" rx="0.72"/><circle class="cls-4" cx="48.37" cy="429.95" r="1.44"/><rect class="cls-4" x="64.53" y="447.04" width="168.43" height="1.44" rx="0.72"/><circle class="cls-4" cx="48.37" cy="447.76" r="1.44"/><rect class="cls-7" x="64.53" y="457.82" width="168.43" height="1.44" rx="0.72"/><circle class="cls-7" cx="48.37" cy="458.53" r="1.44"/><rect class="cls-6" x="107.26" y="468.59" width="125.69" height="1.44" rx="0.62"/><circle class="cls-6" cx="48.37" cy="469.31" r="1.44"/><rect class="cls-5" x="107.26" y="479.36" width="125.69" height="1.44" rx="0.62"/><circle class="cls-5" cx="48.37" cy="480.08" r="1.44"/><rect class="cls-6" x="107.26" y="490.14" width="125.69" height="1.44" rx="0.62"/><circle class="cls-6" cx="48.37" cy="490.85" r="1.44"/><rect class="cls-6" x="161.13" y="500.91" width="71.82" height="1.44" rx="0.47"/><circle class="cls-6" cx="48.37" cy="501.63" r="1.44"/><path class="cls-8" d="M244.41,477.87c-.1-.16-.25-.16-.34,0L241.71,482a.18.18,0,0,0,.17.29h4.72c.18,0,.26-.13.16-.29Z"/><path class="cls-9" d="M244.5,481.48a.26.26,0,1,1-.26-.26A.26.26,0,0,1,244.5,481.48Z"/><path class="cls-9" d="M244.62,479.36v-.08a.38.38,0,0,0-.38-.38.39.39,0,0,0-.39.38s0,.06,0,.08l.15,1.29h0a.23.23,0,1,0,.46,0h0Z"/></g></g></svg>